<svg width="27" height="23" viewBox="0 0 27 23" fill="none" xmlns="http://www.w3.org/2000/svg">
<path d="M18.2302 8.53875L11.9994 4.35693C11.843 4.25186 11.6612 4.19152 11.4733 4.18236C11.2855 4.1732 11.0987 4.21556 10.9329 4.30491C10.7672 4.39427 10.6286 4.52727 10.532 4.68971C10.4354 4.85216 10.3845 5.03796 10.3846 5.22727V13.5909C10.3845 13.7802 10.4354 13.966 10.532 14.1285C10.6286 14.2909 10.7672 14.4239 10.9329 14.5133C11.0987 14.6026 11.2855 14.645 11.4733 14.6358C11.6612 14.6267 11.843 14.5663 11.9994 14.4613L18.2302 10.2794C18.3726 10.184 18.4894 10.0546 18.5702 9.90277C18.651 9.75093 18.6933 9.58134 18.6933 9.40909C18.6933 9.23684 18.651 9.06725 18.5702 8.91541C18.4894 8.76357 18.3726 8.63418 18.2302 8.53875ZM12.4615 11.6372V7.1875L15.782 9.40909L12.4615 11.6372ZM24.9231 0H2.07692C1.52609 0 0.997815 0.220291 0.608317 0.612413C0.218818 1.00453 0 1.53637 0 2.09091V16.7273C0 17.2818 0.218818 17.8136 0.608317 18.2058C0.997815 18.5979 1.52609 18.8182 2.07692 18.8182H24.9231C25.4739 18.8182 26.0022 18.5979 26.3917 18.2058C26.7812 17.8136 27 17.2818 27 16.7273V2.09091C27 1.53637 26.7812 1.00453 26.3917 0.612413C26.0022 0.220291 25.4739 0 24.9231 0ZM24.9231 16.7273H2.07692V2.09091H24.9231V16.7273ZM27 21.9545C27 22.2318 26.8906 22.4977 26.6958 22.6938C26.5011 22.8899 26.237 23 25.9615 23H1.03846C0.763044 23 0.498908 22.8899 0.304158 22.6938C0.109409 22.4977 0 22.2318 0 21.9545C0 21.6773 0.109409 21.4114 0.304158 21.2153C0.498908 21.0192 0.763044 20.9091 1.03846 20.9091H25.9615C26.237 20.9091 26.5011 21.0192 26.6958 21.2153C26.8906 21.4114 27 21.6773 27 21.9545Z" fill="white"/>
</svg>
