<svg width="10" height="10" viewBox="0 0 10 10" fill="none" xmlns="http://www.w3.org/2000/svg">
<path d="M5.04866 4.9515C4.41341 4.31598 3.98078 3.50641 3.80546 2.6251C3.63014 1.74378 3.71998 0.83027 4.06364 0C3.0838 0.192895 2.18378 0.673688 1.47866 1.38089C-0.492887 3.3525 -0.492887 6.54949 1.47866 8.5211C3.45072 10.4932 6.6471 10.4927 8.61916 8.5211C9.32615 7.81603 9.8069 6.91619 10 5.93655C9.16974 6.28015 8.25628 6.36996 7.37501 6.19463C6.49373 6.01931 5.68419 5.58671 5.04866 4.9515Z" fill="#FF001B"/>
<path d="M6.45961 1.58865C6.46685 1.56679 6.4808 1.54776 6.49947 1.53427C6.51814 1.52079 6.54059 1.51353 6.56362 1.51353C6.58665 1.51353 6.60909 1.52079 6.62777 1.53427C6.64644 1.54776 6.66038 1.56679 6.66762 1.58865L6.86301 2.17534C6.95035 2.43687 7.15533 2.64186 7.41686 2.72921L8.00353 2.9246C8.02539 2.93184 8.04442 2.94579 8.05791 2.96446C8.07139 2.98313 8.07865 3.00558 8.07865 3.02861C8.07865 3.05164 8.07139 3.07409 8.05791 3.09276C8.04442 3.11143 8.02539 3.12538 8.00353 3.13262L7.41686 3.32801C7.28788 3.37099 7.17067 3.44341 7.07454 3.53955C6.97841 3.63569 6.90598 3.75289 6.86301 3.88188L6.66762 4.46857C6.66038 4.49043 6.64644 4.50946 6.62777 4.52295C6.60909 4.53643 6.58665 4.54369 6.56362 4.54369C6.54059 4.54369 6.51814 4.53643 6.49947 4.52295C6.4808 4.50946 6.46685 4.49043 6.45961 4.46857L6.26422 3.88188C6.22125 3.75289 6.14883 3.63569 6.05269 3.53955C5.95656 3.44341 5.83936 3.37099 5.71037 3.32801L5.1237 3.13262C5.10184 3.12538 5.08281 3.11143 5.06933 3.09276C5.05584 3.07409 5.04858 3.05164 5.04858 3.02861C5.04858 3.00558 5.05584 2.98313 5.06933 2.96446C5.08281 2.94579 5.10184 2.93184 5.1237 2.9246L5.71037 2.72921C5.83936 2.68623 5.95656 2.61381 6.05269 2.51767C6.14883 2.42153 6.22125 2.30433 6.26422 2.17534L6.45961 1.58865ZM8.00908 0.0492285C8.01407 0.0348523 8.02341 0.0223863 8.0358 0.0135636C8.0482 0.00474091 8.06304 0 8.07825 0C8.09347 0 8.1083 0.00474091 8.1207 0.0135636C8.1331 0.0223863 8.14244 0.0348523 8.14742 0.0492285L8.27768 0.440017C8.33574 0.61471 8.47256 0.751536 8.64725 0.809599L9.03803 0.939862C9.0524 0.944846 9.06487 0.954186 9.07369 0.966583C9.08251 0.978979 9.08725 0.993817 9.08725 1.00903C9.08725 1.02425 9.08251 1.03909 9.07369 1.05148C9.06487 1.06388 9.0524 1.07322 9.03803 1.0782L8.64725 1.20847C8.56116 1.23711 8.48294 1.28542 8.41878 1.34958C8.35463 1.41373 8.30632 1.49196 8.27768 1.57805L8.14742 1.96884C8.14244 1.98321 8.1331 1.99568 8.1207 2.0045C8.1083 2.01332 8.09347 2.01807 8.07825 2.01807C8.06304 2.01807 8.0482 2.01332 8.0358 2.0045C8.02341 1.99568 8.01407 1.98321 8.00908 1.96884L7.87882 1.57805C7.85019 1.49196 7.80187 1.41373 7.73772 1.34958C7.67357 1.28542 7.59534 1.23711 7.50925 1.20847L7.11848 1.0782C7.1041 1.07322 7.09164 1.06388 7.08281 1.05148C7.07399 1.03909 7.06925 1.02425 7.06925 1.00903C7.06925 0.993817 7.07399 0.978979 7.08281 0.966583C7.09164 0.954186 7.1041 0.944846 7.11848 0.939862L7.50925 0.809599C7.68394 0.751536 7.82076 0.61471 7.87882 0.440017L8.00908 0.0497334V0.0492285Z" fill="#FF001B"/>
</svg>
