<svg width="12" height="12" viewBox="0 0 12 12" fill="none" xmlns="http://www.w3.org/2000/svg">
<path d="M5.33333 0.888889V0.666667C5.33333 0.489856 5.40357 0.320286 5.5286 0.195262C5.65362 0.0702379 5.82319 0 6 0C6.17681 0 6.34638 0.0702379 6.4714 0.195262C6.59643 0.320286 6.66667 0.489856 6.66667 0.666667V0.888889C6.66667 1.0657 6.59643 1.23527 6.4714 1.36029C6.34638 1.48532 6.17681 1.55556 6 1.55556C5.82319 1.55556 5.65362 1.48532 5.5286 1.36029C5.40357 1.23527 5.33333 1.0657 5.33333 0.888889ZM9.77778 6C9.77778 6.74717 9.55622 7.47757 9.14111 8.09882C8.726 8.72007 8.13599 9.20428 7.44569 9.49021C6.75539 9.77614 5.99581 9.85096 5.26299 9.70519C4.53018 9.55942 3.85704 9.19962 3.32871 8.67129C2.80038 8.14296 2.44058 7.46982 2.29481 6.73701C2.14904 6.00419 2.22386 5.24461 2.50979 4.55431C2.79572 3.86401 3.27993 3.274 3.90118 2.85889C4.52243 2.44379 5.25283 2.22222 6 2.22222C7.00161 2.22325 7.96191 2.6216 8.67015 3.32984C9.3784 4.03809 9.77675 4.99839 9.77778 6ZM8.44444 6C8.44444 5.51653 8.30108 5.04393 8.03248 4.64194C7.76388 4.23995 7.38211 3.92664 6.93545 3.74163C6.48879 3.55661 5.99729 3.50821 5.52311 3.60253C5.04894 3.69684 4.61338 3.92966 4.27152 4.27152C3.92966 4.61338 3.69684 5.04894 3.60253 5.52311C3.50821 5.99729 3.55661 6.48879 3.74163 6.93545C3.92664 7.38211 4.23995 7.76388 4.64194 8.03248C5.04393 8.30108 5.51653 8.44444 6 8.44444C6.64808 8.44371 7.26941 8.18594 7.72767 7.72767C8.18594 7.26941 8.44371 6.64808 8.44444 6ZM1.75056 2.69389C1.81257 2.7559 1.88619 2.80509 1.96721 2.83865C2.04824 2.87222 2.13508 2.88949 2.22278 2.88949C2.31048 2.88949 2.39732 2.87222 2.47834 2.83865C2.55937 2.80509 2.63299 2.7559 2.695 2.69389C2.75701 2.63188 2.8062 2.55826 2.83977 2.47723C2.87333 2.39621 2.8906 2.30937 2.8906 2.22167C2.8906 2.13397 2.87333 2.04713 2.83977 1.9661C2.8062 1.88508 2.75701 1.81146 2.695 1.74944L2.47278 1.52722C2.34754 1.40198 2.17767 1.33162 2.00056 1.33162C1.82344 1.33162 1.65357 1.40198 1.52833 1.52722C1.40309 1.65246 1.33273 1.82233 1.33273 1.99944C1.33273 2.17656 1.40309 2.34643 1.52833 2.47167L1.75056 2.69389ZM1.75056 9.305L1.52833 9.52722C1.46632 9.58924 1.41713 9.66286 1.38357 9.74388C1.35001 9.8249 1.33273 9.91175 1.33273 9.99944C1.33273 10.0871 1.35001 10.174 1.38357 10.255C1.41713 10.336 1.46632 10.4097 1.52833 10.4717C1.65357 10.5969 1.82344 10.6673 2.00056 10.6673C2.08826 10.6673 2.1751 10.65 2.25612 10.6164C2.33714 10.5829 2.41076 10.5337 2.47278 10.4717L2.695 10.2494C2.82024 10.1242 2.8906 9.95434 2.8906 9.77722C2.8906 9.60011 2.82024 9.43024 2.695 9.305C2.56976 9.17976 2.3999 9.1094 2.22278 9.1094C2.04566 9.1094 1.8758 9.17976 1.75056 9.305ZM9.77778 2.88889C9.86535 2.88896 9.95208 2.87177 10.033 2.83831C10.1139 2.80485 10.1875 2.75578 10.2494 2.69389L10.4717 2.47167C10.5969 2.34643 10.6673 2.17656 10.6673 1.99944C10.6673 1.82233 10.5969 1.65246 10.4717 1.52722C10.3464 1.40198 10.1766 1.33162 9.99944 1.33162C9.82233 1.33162 9.65246 1.40198 9.52722 1.52722L9.305 1.74944C9.21121 1.84269 9.14727 1.96172 9.12132 2.09141C9.09536 2.22109 9.10857 2.35556 9.15926 2.47772C9.20994 2.59988 9.29581 2.7042 9.40595 2.77742C9.51609 2.85063 9.64552 2.88944 9.77778 2.88889ZM10.2494 9.30611C10.1242 9.18087 9.95434 9.11051 9.77722 9.11051C9.60011 9.11051 9.43024 9.18087 9.305 9.30611C9.17976 9.43135 9.1094 9.60122 9.1094 9.77833C9.1094 9.95545 9.17976 10.1253 9.305 10.2506L9.52722 10.4728C9.65246 10.598 9.82233 10.6684 9.99944 10.6684C10.1766 10.6684 10.3464 10.598 10.4717 10.4728C10.5969 10.3475 10.6673 10.1777 10.6673 10.0006C10.6673 9.82344 10.5969 9.65357 10.4717 9.52833L10.2494 9.30611ZM1.55556 6C1.55556 5.82319 1.48532 5.65362 1.36029 5.5286C1.23527 5.40357 1.0657 5.33333 0.888889 5.33333H0.666667C0.489856 5.33333 0.320286 5.40357 0.195262 5.5286C0.0702379 5.65362 0 5.82319 0 6C0 6.17681 0.0702379 6.34638 0.195262 6.4714C0.320286 6.59643 0.489856 6.66667 0.666667 6.66667H0.888889C1.0657 6.66667 1.23527 6.59643 1.36029 6.4714C1.48532 6.34638 1.55556 6.17681 1.55556 6ZM6 10.4444C5.82319 10.4444 5.65362 10.5147 5.5286 10.6397C5.40357 10.7647 5.33333 10.9343 5.33333 11.1111V11.3333C5.33333 11.5101 5.40357 11.6797 5.5286 11.8047C5.65362 11.9298 5.82319 12 6 12C6.17681 12 6.34638 11.9298 6.4714 11.8047C6.59643 11.6797 6.66667 11.5101 6.66667 11.3333V11.1111C6.66667 10.9343 6.59643 10.7647 6.4714 10.6397C6.34638 10.5147 6.17681 10.4444 6 10.4444ZM11.3333 5.33333H11.1111C10.9343 5.33333 10.7647 5.40357 10.6397 5.5286C10.5147 5.65362 10.4444 5.82319 10.4444 6C10.4444 6.17681 10.5147 6.34638 10.6397 6.4714C10.7647 6.59643 10.9343 6.66667 11.1111 6.66667H11.3333C11.5101 6.66667 11.6797 6.59643 11.8047 6.4714C11.9298 6.34638 12 6.17681 12 6C12 5.82319 11.9298 5.65362 11.8047 5.5286C11.6797 5.40357 11.5101 5.33333 11.3333 5.33333Z" fill="white"/>
</svg>
